<?xml version="1.0" standalone="no"?>
<!DOCTYPE svg PUBLIC "-//W3C//DTD SVG 20010904//EN"
 "http://www.w3.org/TR/2001/REC-SVG-20010904/DTD/svg10.dtd">
<svg version="1.0" xmlns="http://www.w3.org/2000/svg"
 width="512.000000pt" height="512.000000pt" viewBox="0 0 512.000000 512.000000"
 preserveAspectRatio="xMidYMid meet">
<metadata>
Created by potrace 1.16, written by Peter Selinger 2001-2019
</metadata>
<g transform="translate(0.000000,512.000000) scale(0.100000,-0.100000)"
fill="#000000" stroke="none">
<path d="M2352 4204 c-227 -36 -507 -153 -702 -291 -117 -84 -305 -269 -393
-387 -337 -455 -426 -1034 -237 -1546 91 -247 222 -453 405 -636 287 -288 629
-450 1024 -485 266 -23 575 33 831 152 71 34 88 38 106 28 17 -9 28 -7 55 6
60 31 201 132 287 205 104 89 107 107 30 173 -48 41 -51 46 -37 64 7 11 44 60
81 109 130 171 248 440 300 681 20 95 23 135 23 328 -1 245 -14 333 -80 532
-135 404 -467 754 -905 952 -52 23 -107 54 -121 67 -39 37 -149 55 -379 59
-142 3 -220 0 -288 -11z m460 -115 c301 -59 564 -211 808 -465 354 -370 487
-851 380 -1370 -48 -234 -165 -462 -336 -658 -91 -105 -94 -106 -138 -72 l-37
27 91 96 c127 134 235 299 281 428 16 46 16 50 1 62 -13 10 -14 14 -4 21 17
12 49 99 68 186 25 115 30 334 9 457 -54 325 -226 633 -465 833 -235 196 -435
298 -670 341 -98 18 -325 26 -371 13 -14 -4 -40 -29 -59 -55 -42 -60 -41 -59
-122 -83 -38 -12 -68 -25 -68 -29 0 -5 53 8 118 27 114 34 122 35 282 35 136
0 178 -4 241 -21 186 -50 242 -91 204 -148 -25 -38 -40 -39 -123 -10 -120 41
-207 56 -335 56 -293 0 -560 -109 -779 -319 -100 -95 -108 -108 -77 -132 l24
-18 -32 -39 c-74 -92 -129 -222 -158 -374 -11 -60 -12 -85 -4 -101 7 -11 13
-79 14 -151 2 -96 8 -153 24 -211 31 -119 49 -155 78 -155 35 0 37 18 10 101
-55 169 -66 384 -27 534 35 138 120 295 220 408 34 38 48 47 65 43 16 -4 40 8
91 50 38 30 103 72 144 93 68 34 105 46 247 81 38 10 46 17 79 75 l36 65 56 0
c134 0 292 -44 420 -116 45 -26 82 -52 82 -58 0 -6 -23 -34 -52 -63 l-51 -52
-56 28 c-140 70 -294 108 -319 78 -16 -19 -6 -65 16 -71 10 -2 42 -10 72 -16
191 -42 390 -202 490 -392 59 -112 82 -209 82 -348 1 -134 -21 -232 -78 -348
-37 -75 -142 -215 -175 -232 -21 -12 -25 -35 -8 -46 7 -4 20 4 30 17 l18 24
23 -23 c14 -12 29 -22 35 -22 6 0 30 21 53 48 158 178 238 428 210 655 -20
165 -75 302 -169 427 l-50 65 33 35 c19 19 40 49 47 65 23 48 55 41 109 -27
158 -196 245 -523 211 -796 -19 -156 -86 -338 -170 -462 l-30 -44 32 -27 c46
-40 92 -63 110 -56 54 21 174 252 219 423 29 111 31 131 32 294 0 133 -4 195
-18 258 -63 294 -211 536 -431 708 l-40 31 38 18 37 17 48 -41 c87 -73 226
-225 283 -311 180 -270 269 -593 239 -871 -14 -132 -34 -205 -70 -250 -15 -19
-42 -69 -59 -109 -18 -41 -56 -111 -87 -156 -55 -84 -198 -244 -216 -244 -6 0
-28 16 -50 36 l-40 35 -31 -26 c-105 -85 -175 -132 -282 -185 -138 -69 -255
-103 -413 -120 -285 -32 -596 63 -832 253 -70 57 -78 71 -55 101 14 19 15 19
35 1 15 -13 23 -15 33 -7 10 9 27 1 73 -34 84 -64 243 -140 359 -171 91 -24
116 -27 280 -27 163 0 189 3 278 27 115 31 265 99 351 161 82 58 203 172 193
182 -4 4 -20 -4 -35 -18 -15 -14 -40 -33 -55 -43 l-28 -18 -37 36 -38 37 -59
-46 c-76 -57 -240 -138 -325 -159 -103 -27 -233 -36 -352 -25 -291 27 -543
168 -703 393 -37 53 -65 72 -65 45 0 -16 53 -96 116 -175 l53 -68 -27 -28 -27
-29 -44 48 c-164 181 -270 465 -271 724 0 158 37 321 112 497 43 101 47 137 8
77 -24 -36 -28 -38 -77 -38 -47 -1 -56 -5 -92 -40 -48 -47 -73 -102 -108 -243
-24 -95 -27 -127 -28 -273 0 -228 34 -380 131 -574 188 -375 541 -641 945
-712 120 -21 344 -14 469 15 161 37 339 119 476 218 l74 55 38 -33 c172 -151
242 -215 242 -224 0 -15 -135 -112 -242 -174 -244 -142 -499 -216 -784 -228
-163 -7 -291 8 -445 52 -450 130 -817 442 -1024 869 -91 187 -134 342 -156
557 -38 367 106 804 369 1119 367 440 918 651 1434 549z"/>
<path d="M2248 3983 c7 -3 16 -2 19 1 4 3 -2 6 -13 5 -11 0 -14 -3 -6 -6z"/>
<path d="M2103 3945 c-206 -69 -366 -167 -525 -323 -174 -169 -296 -344 -374
-535 -162 -398 -133 -830 80 -1171 63 -100 75 -106 20 -8 -74 129 -128 287
-159 463 -19 109 -19 320 0 432 57 322 260 662 488 814 40 26 95 69 123 95 90
82 266 185 415 242 95 37 49 31 -68 -9z"/>
<path d="M1806 3625 c-25 -20 -46 -41 -46 -46 0 -6 23 8 50 31 45 38 57 50 46
50 -2 0 -24 -16 -50 -35z"/>
<path d="M2557 3414 c-13 -17 -28 -24 -53 -24 -69 0 -190 -32 -274 -73 -70
-34 -102 -58 -181 -136 -82 -82 -102 -110 -142 -191 -54 -110 -75 -183 -83
-295 -7 -82 11 -211 40 -294 14 -38 14 -41 -10 -66 -25 -27 -46 -30 -99 -11
-14 6 -12 0 11 -21 16 -15 51 -57 76 -93 52 -73 149 -170 221 -219 108 -74
300 -141 404 -141 39 0 44 3 68 43 14 24 25 47 25 50 0 4 -17 7 -38 7 -60 0
-150 27 -242 72 -68 33 -102 59 -176 132 -117 117 -183 235 -209 379 -13 71
12 37 43 -59 40 -120 87 -199 170 -286 131 -137 264 -198 446 -206 171 -7 278
27 404 129 175 141 276 355 276 584 0 136 -13 193 -74 321 -85 176 -236 314
-412 375 -85 29 -148 37 -148 18 0 -27 22 -47 60 -53 22 -3 40 -10 40 -15 0
-5 22 -17 49 -26 27 -9 81 -38 119 -65 175 -123 266 -289 279 -512 l6 -98
-156 0 c-145 0 -157 -1 -167 -20 -6 -11 -33 -46 -60 -79 -28 -33 -50 -65 -50
-70 0 -22 44 -31 154 -31 108 0 116 -1 116 -19 0 -11 -21 -48 -47 -82 -138
-181 -392 -249 -590 -157 -44 21 -60 43 -43 63 8 9 1 19 -25 39 -83 64 -142
154 -170 261 -42 164 11 350 135 476 66 67 134 104 230 125 68 16 79 25 61 53
-7 12 -20 11 -80 -2 -134 -31 -240 -103 -314 -214 -142 -214 -130 -470 33
-684 l41 -54 -58 62 c-65 68 -105 141 -129 235 -22 85 -15 230 15 318 94 272
384 438 632 360 165 -51 288 -167 344 -321 12 -35 26 -63 29 -61 3 1 19 2 36
2 l29 0 -14 41 c-8 23 -15 48 -15 57 0 32 -93 162 -164 230 -84 79 -221 154
-320 174 l-55 11 15 29 c21 40 14 63 -9 32z m537 -1013 c7 -10 -57 -111 -103
-163 -43 -49 -113 -100 -189 -138 -64 -31 -82 -36 -82 -21 0 5 35 26 77 47 91
43 215 160 252 237 22 46 34 56 45 38z"/>
<path d="M1876 3239 c-70 -76 -129 -183 -162 -289 -18 -59 -18 -70 4 -70 12 0
23 19 40 73 24 76 77 177 137 261 19 26 35 52 35 57 0 19 -19 8 -54 -32z"/>
<path d="M3280 3242 c0 -4 12 -24 26 -43 28 -36 97 -173 107 -209 6 -22 27
-19 27 3 0 18 -66 154 -102 210 -26 41 -58 63 -58 39z"/>
<path d="M2267 2868 c-9 -27 6 -363 17 -370 21 -14 294 -9 329 6 67 28 127
128 127 213 0 66 -17 99 -70 138 -33 24 -38 25 -216 25 -137 0 -183 -3 -187
-12z m123 -180 c0 -66 17 -98 52 -98 10 0 18 -4 18 -10 0 -18 -59 -11 -80 10
-29 29 -28 160 1 160 5 0 9 -28 9 -62z"/>
<path d="M3009 1968 c-73 -55 -175 -103 -265 -124 -58 -14 -74 -21 -74 -36 0
-23 18 -23 110 3 91 25 215 88 271 138 35 31 39 38 27 48 -12 10 -25 5 -69
-29z"/>
<path d="M1350 1816 c0 -2 8 -10 18 -17 15 -13 16 -12 3 4 -13 16 -21 21 -21
13z"/>
<path d="M1300 1723 c0 -21 115 -156 221 -258 198 -191 462 -342 707 -405 44
-11 88 -23 98 -27 11 -4 15 -3 10 5 -3 6 -65 30 -136 53 -348 111 -645 319
-872 609 -15 19 -28 30 -28 23z"/>
<path d="M1906 1373 c-14 -15 -4 -43 23 -62 75 -53 208 -108 346 -143 77 -19
117 -23 280 -23 212 0 282 11 460 71 109 37 150 61 150 90 0 27 -33 23 -144
-21 -170 -66 -249 -80 -476 -79 -184 0 -208 2 -297 26 -120 33 -259 89 -303
122 -18 14 -35 22 -39 19z"/>
</g>
</svg>